M48
;Layer_Color=9474304
;FILE_FORMAT=2:4
INCH,LZ
;TYPE=PLATED
T01F00S00C0.0315
T02F00S00C0.0354
T03F00S00C0.0394
%
T01
X0109Y0013
X01385
T02
X0101Y0128
Y0138
X0111
Y0128
X0121
Y0138
X0131
Y0128
T03
X00195Y00135
X002Y00305
Y00405
X0049Y00375
X0059
X0069
X0079
X0089
X0099
X0109
X0119
X0129
X0139
X0149
X0119Y0023
X0109
X0099
X0089
Y00975
X0099
X0109
X0119
X0129
X0139
X0149
X0111Y01155
X0079Y00975
X0069
X0059
X0049
Y01125
X0039
X0029
X0013
Y01225
X0045Y0145
X0075
X0059Y01125
X0159Y0123
X0169
X0179
X0189
X0199
Y00975
X0209
X0219
X0229
X0239
X0189
X0179
X0169
X0159
X01585Y01465
X0159Y00375
X0169
X0179
X0189
X0199
X0209
X0219
X0229
X0239
X0243Y0023
X0233
X0223
X0213
X01975Y0022
X01875
X01775
M30
